<svg id="Layer_1" data-name="Layer 1" xmlns="http://www.w3.org/2000/svg" viewBox="0 0 122.88 95.86"><defs><style>.cls-1{fill-rule:evenodd;}</style></defs><title>evening</title><path class="cls-1" d="M76.65,61.45c.64.53,1.26,1.09,1.87,1.69h0a15.33,15.33,0,0,1,1.52,2A18.28,18.28,0,0,1,82.61,75a15.9,15.9,0,0,1-2.7,9.21,14.49,14.49,0,0,1-4.57,3.86,26.38,26.38,0,0,1-6.65,2.49H16.81a14.59,14.59,0,0,1-3.64-1,11.07,11.07,0,0,1-2.95-1.77A13.67,13.67,0,0,1,8,85.43a14.33,14.33,0,0,1-2.71-8.25,11.76,11.76,0,0,1,4.88-9.93,16.06,16.06,0,0,1,3.56-1.91,25.06,25.06,0,0,1,4.69-1.26l1.78-.31L20.5,62a21,21,0,0,1,7.67-13,21.64,21.64,0,0,1,11.17-4.36,22.72,22.72,0,0,1,11.94,2.08,21.06,21.06,0,0,1,9.28,8.72c-.49.21-1,.44-1.45.67A28.84,28.84,0,0,0,51.85,61l3.46,4a37.76,37.76,0,0,1,4.81-3.42h0c.53-.31,1.07-.6,1.6-.86A18.28,18.28,0,0,1,69.18,59a12.47,12.47,0,0,1,7.47,2.41Zm9.81-34.73h-.28a8.19,8.19,0,0,0-2.56-6,8.2,8.2,0,0,0-6-2.55V17.9a8.17,8.17,0,0,0,6-2.56,8.2,8.2,0,0,0,2.56-6h.28a8.19,8.19,0,0,0,2.56,6,8.15,8.15,0,0,0,6,2.56v.28a8.2,8.2,0,0,0-6,2.55,8.19,8.19,0,0,0-2.56,6Zm28.13-5.44h-.19a5.74,5.74,0,0,0-5.62-5.62v-.19a5.41,5.41,0,0,0,3.94-1.68,5.42,5.42,0,0,0,1.68-3.94h.19a5.41,5.41,0,0,0,1.68,3.94,5.42,5.42,0,0,0,3.94,1.69v.18a5.76,5.76,0,0,0-5.62,5.62ZM103.76,45.87h-.35A10.94,10.94,0,0,0,92.73,35.2v-.35a10.24,10.24,0,0,0,7.48-3.2,10.29,10.29,0,0,0,3.2-7.48h.35A10.23,10.23,0,0,0,107,31.65a10.26,10.26,0,0,0,7.48,3.2v.34a10.92,10.92,0,0,0-10.67,10.68ZM87.85,79.05c14.62-3.07,31-15.12,35-29.38A34.91,34.91,0,0,1,74.43,0C57.09,4.39,44.26,20.71,44.23,39.41a27.63,27.63,0,0,0-5.38,0A26.88,26.88,0,0,0,25,44.84a26,26,0,0,0-9.23,14.41,28.35,28.35,0,0,0-3.94,1.2A20.93,20.93,0,0,0,7.05,63,17.1,17.1,0,0,0,4,65.87,17.35,17.35,0,0,0,0,77.2,19.75,19.75,0,0,0,3.7,88.52a18.57,18.57,0,0,0,3.15,3.37,16.3,16.3,0,0,0,4.33,2.6,20,20,0,0,0,5.21,1.34l.33,0H69l.59-.07a31.77,31.77,0,0,0,8.35-3.1,19.48,19.48,0,0,0,6.19-5.31,18.65,18.65,0,0,0,3.4-8.31l.35,0Z"/></svg>